<svg width="1475" height="234" viewBox="0 0 1475 234" fill="none" xmlns="http://www.w3.org/2000/svg">
<path d="M288.724 48.4618H323.216V55.2622H309.86V91.3469H302.57V55.2622H288.724V48.4618ZM328.721 48.4618H335.766V63.1653C338.299 59.9387 341.688 58.3254 345.936 58.3254C349.653 58.3254 352.839 59.5303 355.493 61.94C358.189 64.3089 359.537 67.4742 359.537 71.436V91.3469H352.491V73.3352C352.491 70.7621 351.715 68.7199 350.163 67.2087C348.611 65.6567 346.733 64.8807 344.527 64.8807C341.954 64.8807 339.851 65.8201 338.217 67.6988C336.583 69.5368 335.766 71.8444 335.766 74.6217V91.3469H328.721V48.4618ZM369.613 63.2265C372.88 59.9591 376.801 58.3254 381.376 58.3254C385.46 58.3254 389.013 59.6528 392.036 62.3076C395.099 64.9215 396.978 68.2094 397.672 72.1712C397.917 73.1514 398.04 74.1316 398.04 75.1118C398.04 75.9695 397.938 76.8273 397.733 77.685H371.635C372.043 80.0947 373.146 82.0143 374.943 83.4438C376.781 84.8733 378.925 85.5881 381.376 85.5881C385.133 85.5881 388.135 84.2402 390.382 81.5446L396.631 83.1988C395.324 85.8127 393.22 87.9161 390.32 89.509C387.461 91.061 384.48 91.837 381.376 91.837C376.679 91.837 372.717 90.2033 369.49 86.9359C366.305 83.6684 364.712 79.7271 364.712 75.1118C364.712 70.4557 366.345 66.494 369.613 63.2265ZM371.635 72.2937H390.872C390.463 70.129 389.381 68.3115 387.625 66.8411C385.909 65.33 383.806 64.5744 381.314 64.5744C378.823 64.5744 376.699 65.33 374.943 66.8411C373.187 68.3115 372.084 70.129 371.635 72.2937ZM419.15 48.4618H453.642V55.2622H440.286V91.3469H432.996V55.2622H419.15V48.4618ZM456.843 63.2265C460.11 59.9591 464.031 58.3254 468.606 58.3254C472.69 58.3254 476.243 59.6528 479.266 62.3076C482.329 64.9215 484.208 68.2094 484.902 72.1712C485.147 73.1514 485.27 74.1316 485.27 75.1118C485.27 75.9695 485.168 76.8273 484.963 77.685H458.865C459.273 80.0947 460.376 82.0143 462.173 83.4438C464.011 84.8733 466.155 85.5881 468.606 85.5881C472.363 85.5881 475.365 84.2402 477.612 81.5446L483.861 83.1988C482.554 85.8127 480.45 87.9161 477.55 89.509C474.691 91.061 471.71 91.837 468.606 91.837C463.909 91.837 459.947 90.2033 456.72 86.9359C453.535 83.6684 451.942 79.7271 451.942 75.1118C451.942 70.4557 453.576 66.494 456.843 63.2265ZM458.865 72.2937H478.102C477.693 70.129 476.611 68.3115 474.855 66.8411C473.139 65.33 471.036 64.5744 468.544 64.5744C466.053 64.5744 463.929 65.33 462.173 66.8411C460.417 68.3115 459.314 70.129 458.865 72.2937ZM494.116 63.2265C497.384 59.9591 501.305 58.3254 505.879 58.3254C509.31 58.3254 512.414 59.3056 515.191 61.2661C517.968 63.1857 519.97 65.718 521.195 68.8629L514.701 70.6395C513.884 68.8425 512.7 67.4129 511.148 66.351C509.596 65.2483 507.839 64.6969 505.879 64.6969C503.061 64.6969 500.671 65.718 498.711 67.7601C496.751 69.8023 495.77 72.2528 495.77 75.1118C495.77 77.93 496.751 80.3602 498.711 82.4023C500.671 84.4445 503.061 85.4655 505.879 85.4655C507.839 85.4655 509.596 84.9346 511.148 83.8727C512.741 82.7699 513.925 81.3404 514.701 79.5842L521.195 81.2996C519.929 84.4445 517.928 86.9971 515.191 88.9576C512.455 90.8772 509.351 91.837 505.879 91.837C501.223 91.837 497.281 90.2033 494.055 86.9359C490.828 83.6276 489.215 79.6863 489.215 75.1118C489.215 70.4557 490.849 66.494 494.116 63.2265ZM526.095 48.4618H533.141V63.1653C535.673 59.9387 539.063 58.3254 543.311 58.3254C547.027 58.3254 550.213 59.5303 552.868 61.94C555.563 64.3089 556.911 67.4742 556.911 71.436V91.3469H549.866V73.3352C549.866 70.7621 549.09 68.7199 547.538 67.2087C545.986 65.6567 544.107 64.8807 541.901 64.8807C539.328 64.8807 537.225 65.8201 535.591 67.6988C533.958 69.5368 533.141 71.8444 533.141 74.6217V91.3469H526.095V48.4618ZM611.361 48.4618V55.2009H587.652V66.5961H608.91V73.1514H587.652V91.3469H580.422V48.4618H611.361ZM618.26 63.2265C621.528 59.9591 625.449 58.3254 630.023 58.3254C634.107 58.3254 637.661 59.6528 640.683 62.3076C643.746 64.9215 645.625 68.2094 646.32 72.1712C646.565 73.1514 646.687 74.1316 646.687 75.1118C646.687 75.9695 646.585 76.8273 646.381 77.685H620.282C620.691 80.0947 621.793 82.0143 623.59 83.4438C625.428 84.8733 627.573 85.5881 630.023 85.5881C633.781 85.5881 636.783 84.2402 639.029 81.5446L645.278 83.1988C643.971 85.8127 641.868 87.9161 638.968 89.509C636.109 91.061 633.127 91.837 630.023 91.837C625.326 91.837 621.364 90.2033 618.138 86.9359C614.952 83.6684 613.359 79.7271 613.359 75.1118C613.359 70.4557 614.993 66.494 618.26 63.2265ZM620.282 72.2937H639.519C639.111 70.129 638.028 68.3115 636.272 66.8411C634.557 65.33 632.453 64.5744 629.962 64.5744C627.471 64.5744 625.347 65.33 623.59 66.8411C621.834 68.3115 620.731 70.129 620.282 72.2937ZM650.993 68.1277C650.993 65.0645 652.239 62.6752 654.73 60.9598C657.221 59.2035 660.407 58.3254 664.287 58.3254C668.902 58.3254 673.089 59.4486 676.846 61.6949V68.4953C672.109 65.7588 667.922 64.3906 664.287 64.3906C662.49 64.3906 661.02 64.7377 659.876 65.4321C658.773 66.0856 658.222 66.9637 658.222 68.0664C658.222 68.434 658.283 68.7812 658.406 69.1079C658.569 69.3938 658.814 69.6593 659.141 69.9044C659.509 70.1494 659.856 70.3536 660.183 70.517C660.55 70.6804 661.061 70.8642 661.714 71.0684C662.368 71.2318 662.919 71.3747 663.368 71.4972C663.818 71.5789 664.471 71.7219 665.329 71.9261C666.227 72.1303 666.942 72.2937 667.473 72.4162C671.231 73.3148 673.947 74.5809 675.621 76.2146C677.337 77.8483 678.215 79.8496 678.256 82.2185C678.256 84.424 677.561 86.2824 676.173 87.7936C674.825 89.3048 673.211 90.3667 671.333 90.9793C669.454 91.5511 667.391 91.837 665.145 91.837C660.53 91.837 656.037 90.428 651.667 87.6098V80.4419C653.137 81.708 655.159 82.8924 657.732 83.9952C660.305 85.098 662.776 85.6493 665.145 85.6493C666.738 85.6493 668.106 85.343 669.25 84.7304C670.434 84.0769 671.026 83.2192 671.026 82.1573C671.026 81.0545 670.352 80.156 669.005 79.4616C667.657 78.7264 665.553 78.073 662.694 77.5012C658.692 76.6843 655.731 75.5611 653.811 74.1316C651.932 72.6613 650.993 70.66 650.993 68.1277ZM680.953 65.0032V58.8768H687.079V51.0962L694.002 49.0745V58.8768H703.988V65.0032H694.002V80.8094C694.002 82.8107 694.574 84.0565 695.717 84.5466C696.902 85.0367 697.964 85.2817 698.903 85.2817C700.373 85.2817 702.15 84.955 704.233 84.3015V91.1019C702.028 91.7145 700.006 92.0208 698.168 92.0208C695.758 92.0208 693.308 91.3265 690.816 89.9378C688.325 88.5083 687.079 85.486 687.079 80.8707V65.0032H680.953ZM730.255 63.2265C733.4 59.9591 737.219 58.3254 741.712 58.3254C746.082 58.3254 749.553 59.9591 752.127 63.2265V58.8768H759.172V91.3469H752.127V86.9971C749.553 90.2237 746.082 91.837 741.712 91.837C737.26 91.837 733.441 90.2033 730.255 86.9359C727.11 83.6276 725.538 79.6863 725.538 75.1118C725.538 70.4557 727.11 66.494 730.255 63.2265ZM732.093 75.1118C732.093 77.9709 733.073 80.4214 735.034 82.4636C737.035 84.4649 739.465 85.4655 742.324 85.4655C745.142 85.4655 747.552 84.4445 749.553 82.4023C751.596 80.3602 752.617 77.93 752.617 75.1118C752.617 72.2937 751.596 69.8635 749.553 67.8214C747.552 65.7384 745.142 64.6969 742.324 64.6969C739.465 64.6969 737.035 65.718 735.034 67.7601C733.073 69.8023 732.093 72.2528 732.093 75.1118ZM764.413 65.0032V58.8768H770.54V51.0962L777.463 49.0745V58.8768H787.449V65.0032H777.463V80.8094C777.463 82.8107 778.035 84.0565 779.178 84.5466C780.363 85.0367 781.425 85.2817 782.364 85.2817C783.834 85.2817 785.611 84.955 787.694 84.3015V91.1019C785.488 91.7145 783.467 92.0208 781.629 92.0208C779.219 92.0208 776.768 91.3265 774.277 89.9378C771.786 88.5083 770.54 85.486 770.54 80.8707V65.0032H764.413ZM810.224 91.3469V48.4618H829.277C833.402 48.4618 836.833 49.8709 839.57 52.6891C842.306 55.4664 843.674 58.7951 843.674 62.6752C843.674 65.6567 842.817 68.3115 841.101 70.6395C839.386 72.9676 837.16 74.54 834.423 75.3569L844.226 91.3469H836.016L826.643 76.2759H817.453V91.3469H810.224ZM828.971 69.9044C831.135 69.9044 832.953 69.21 834.423 67.8214C835.894 66.3919 836.629 64.5948 836.629 62.4301C836.629 60.3471 835.955 58.5909 834.607 57.1614C833.259 55.7319 831.483 55.0171 829.277 55.0171H817.453V69.9044H828.971ZM849.83 91.3469V48.4618H857.121V70.7621L876.909 48.4618H885.915L868.21 68.189L886.467 91.3469H877.461L863.431 73.5802L857.121 80.5644V91.3469H849.83ZM902.703 48.4618L914.71 86.6296L926.78 48.4618H938.91V91.3469H931.865V54.4045L920.224 91.3469H909.197L897.679 54.6495V91.3469H890.634V48.4618H902.703ZM944.505 48.4618H952.53L964.967 86.6908L977.587 48.4618H985.491L970.91 91.3469H959.024L944.505 48.4618ZM1021.48 48.4618V55.2009H998.195V66.5961H1019.03V73.2126H998.195V84.6078H1021.48V91.3469H990.966V48.4618H1021.48ZM1028.42 91.3469V48.4618H1047.47C1051.6 48.4618 1055.03 49.8709 1057.76 52.6891C1060.5 55.4664 1061.87 58.7951 1061.87 62.6752C1061.87 65.6567 1061.01 68.3115 1059.3 70.6395C1057.58 72.9676 1055.35 74.54 1052.62 75.3569L1062.42 91.3469H1054.21L1044.84 76.2759H1035.65V91.3469H1028.42ZM1047.17 69.9044C1049.33 69.9044 1051.15 69.21 1052.62 67.8214C1054.09 66.3919 1054.82 64.5948 1054.82 62.4301C1054.82 60.3471 1054.15 58.5909 1052.8 57.1614C1051.45 55.7319 1049.68 55.0171 1047.47 55.0171H1035.65V69.9044H1047.17ZM1068.45 91.3469V48.4618H1075.81V91.3469H1068.45Z" fill="white"/>
<path d="M0.0188942 0L0.0188942 111.933L103.854 51.8786C104.156 46.7171 106.837 41.857 111.31 39.2763C118.2 35.2827 126.75 38.146 130.412 45.6245C134.074 53.103 131.451 62.4464 124.561 66.4212C122.503 67.6268 120.238 68.2296 117.954 68.2296C116.558 68.2296 115.161 68.0036 113.802 67.5515C112.726 67.1936 111.725 66.6849 110.782 66.1009L0 130.167L0 234H86.0544V165.733L50.6624 186.209C50.5869 187.396 50.3982 188.583 50.0773 189.751C48.9825 193.669 46.5287 196.89 43.1877 198.83C41.1302 200.017 38.884 200.639 36.5812 200.639C35.1843 200.639 33.7876 200.394 32.4285 199.961C28.8232 198.755 25.8598 196.08 24.0854 192.482C20.4235 185.004 23.0473 175.679 29.9369 171.685C33.259 169.764 37.0719 169.35 40.6772 170.555C41.7531 170.913 42.7535 171.422 43.6973 172.006L192.287 85.353V0L0.0188942 0Z" fill="url(#paint0_linear_295_2)"/>
<path d="M223.723 131.243C214.989 131.348 208.465 133.716 204.151 138.346C199.836 142.871 197.416 149.342 196.89 157.761L262.868 157.603V177.333H196.732C196.732 181.332 197.153 185.172 197.995 188.855C198.942 192.538 200.783 195.906 203.519 198.957C205.939 201.798 208.781 203.587 212.043 204.324C215.41 204.955 218.83 205.271 222.302 205.271C222.513 205.271 222.723 205.271 222.934 205.271C223.249 205.271 223.512 205.271 223.723 205.271L262.868 205.113V224.843H222.618C216.199 224.843 209.991 224.265 203.993 223.107C198.1 221.949 192.523 219.266 187.262 215.057C180.948 209.901 176.528 203.64 174.003 196.274C171.477 188.803 170.109 181.174 169.899 173.387C169.794 171.703 169.741 170.072 169.741 168.494C169.846 166.915 169.952 165.337 170.057 163.759C171.214 145.87 176.055 132.716 184.578 124.298C193.207 115.88 206.097 111.671 223.249 111.671L262.868 111.513V131.243H223.723Z" fill="white"/>
<path d="M448.771 130.927C437.301 131.033 429.882 134.821 426.515 142.292C423.148 149.763 421.306 158.445 420.99 168.336C420.99 170.02 420.99 171.756 420.99 173.545C420.99 175.228 421.043 176.965 421.148 178.753C421.464 182.436 422.148 186.067 423.2 189.645C424.253 193.117 425.989 196.221 428.409 198.957C430.935 201.798 433.828 203.587 437.09 204.324C440.458 204.955 443.878 205.271 447.35 205.271C447.56 205.271 447.771 205.271 447.981 205.271C448.297 205.271 448.56 205.271 448.771 205.271L487.915 205.113V224.843H447.666C441.247 224.843 435.038 224.265 429.04 223.107C423.148 221.949 417.571 219.266 412.309 215.057C405.996 209.901 401.576 203.64 399.051 196.274C396.525 188.803 395.157 181.174 394.947 173.387C394.841 171.703 394.789 170.072 394.789 168.494C394.894 166.915 394.999 165.337 395.104 163.759C396.262 145.87 401.102 132.716 409.626 124.298C418.255 115.88 431.145 111.671 448.297 111.671L487.915 111.513V130.927H448.771Z" fill="white"/>
<path d="M552.2 131.243C543.466 131.348 536.942 133.716 532.628 138.346C528.313 142.871 525.893 149.342 525.367 157.761L591.345 157.603V177.333H525.209C525.209 181.332 525.63 185.172 526.472 188.855C527.419 192.538 529.26 195.906 531.996 198.957C534.417 201.798 537.258 203.587 540.52 204.324C543.887 204.955 547.307 205.271 550.779 205.271C550.99 205.271 551.2 205.271 551.411 205.271C551.727 205.271 551.99 205.271 552.2 205.271L591.345 205.113V224.843H551.095C544.676 224.843 538.468 224.265 532.47 223.107C526.577 221.949 521 219.266 515.739 215.057C509.425 209.901 505.005 203.64 502.48 196.274C499.954 188.803 498.587 181.174 498.376 173.387C498.271 171.703 498.218 170.072 498.218 168.494C498.323 166.915 498.429 165.337 498.534 163.759C499.691 145.87 504.532 132.716 513.055 124.298C521.684 115.88 534.574 111.671 551.727 111.671L591.345 111.513V131.243H552.2Z" fill="white"/>
<path d="M754.075 131.401H717.613V111.671H815.475V131.401H778.698V224.843H754.075V131.401Z" fill="white"/>
<path d="M632.235 131.099H659.857V131.257C665.855 131.257 671.169 132.257 675.799 134.256C680.534 136.15 682.797 140.728 682.586 147.989C682.586 154.513 680.482 158.932 676.272 161.247C672.063 163.457 667.065 164.562 661.278 164.562H632.235H608.401V224.226H632.235V184.608L661.12 184.766H664.908H668.696C673.537 184.555 678.272 184.029 682.902 183.187C687.637 182.24 692.004 180.346 696.003 177.505C700.738 174.032 704.105 169.665 706.105 164.404C708.209 159.143 709.209 153.671 709.104 147.989C708.998 141.78 707.736 135.835 705.315 130.152C703 124.47 699.054 119.998 693.477 116.736C690.426 114.947 687.111 113.684 683.533 112.948C680.061 112.106 676.536 111.58 672.958 111.369C670.958 111.159 668.959 111.054 666.96 111.054H660.962H660.488C660.383 111.054 660.278 111.001 660.173 110.896H608.401V131.099H632.235Z" fill="white"/>
<path d="M344.605 110.896H285.888V131.099H309.722H338.923H340.188C345.555 131.099 349.13 131.941 353.444 133.309C357.864 134.677 360.073 138.729 360.073 145.463C360.179 151.987 358.127 156.038 353.918 157.617C349.814 159.09 345.045 159.669 339.994 159.669H338.923H309.722H285.888V224.226H309.722V179.715H337.818L362.757 224.226H389.59L361.336 177.031C369.228 175.137 375.016 171.349 378.699 165.667C382.487 159.879 384.328 153.039 384.223 145.147C384.223 144.411 384.171 143.674 384.065 142.938V140.728C383.75 136.834 382.855 133.046 381.382 129.363C380.014 125.68 377.91 122.471 375.068 119.735C371.912 116.578 368.229 114.421 364.019 113.263C359.916 112.106 355.706 111.422 351.392 111.211C350.235 111.106 349.077 111.054 347.92 111.054C346.867 111.054 345.762 111.001 344.605 110.896Z" fill="white"/>
<path d="M884.838 110.896H826.121V131.099H849.955H879.156H879.492C884.858 131.099 889.363 131.941 893.677 133.309C898.097 134.677 900.307 138.729 900.307 145.463C900.412 151.987 898.36 156.038 894.151 157.617C890.047 159.09 885.278 159.669 880.227 159.669H879.156H849.955H826.121V224.226H849.955V179.715H878.051L902.99 224.226H929.823L901.569 177.031C909.461 175.137 915.249 171.349 918.932 165.667C922.72 159.879 924.562 153.039 924.456 145.147C924.456 144.411 924.404 143.674 924.299 142.938V140.728C923.983 136.834 923.088 133.046 921.615 129.363C920.247 125.68 918.143 122.471 915.302 119.735C912.145 116.578 908.462 114.421 904.253 113.263C900.149 112.106 895.94 111.422 891.625 111.211C890.468 111.106 889.31 111.054 888.153 111.054C887.101 111.054 885.996 111.001 884.838 110.896Z" fill="white"/>
<path d="M1146.85 190.307L1145.74 108.861H1170.05V222.191H1142.43L1093.66 136.484L1094.76 222.191H1070.3V214.226H1071.31C1078.34 214.226 1084.03 208.532 1084.03 201.508V131.772C1084.03 128.492 1084.65 126.317 1085.43 125.001C1086.17 123.748 1087.05 123.267 1087.9 123.156C1089.79 122.908 1093.18 124.456 1096.07 129.463L1096.09 129.494L1096.11 129.524L1142.91 205.617C1145.51 210.079 1149.9 213.452 1154.46 212.135C1156.75 211.472 1158.51 209.716 1159.64 207.302C1160.77 204.914 1161.35 201.761 1161.35 197.883V132.261C1161.35 128.047 1164.77 124.631 1168.98 124.631H1170V119.544H1168.98C1161.96 119.544 1156.27 125.238 1156.27 132.261V197.883C1156.27 201.307 1155.74 203.65 1155.04 205.137C1154.35 206.597 1153.58 207.093 1153.04 207.249C1151.96 207.563 1149.5 206.871 1147.28 203.013L1147.26 202.982L1147.24 202.952L1100.44 126.859C1097.16 121.218 1092.18 117.464 1087.24 118.113C1084.66 118.452 1082.5 119.979 1081.06 122.402C1079.65 124.762 1078.94 127.932 1078.94 131.772V201.508C1078.94 205.722 1075.53 209.139 1071.31 209.139H1070.3V108.861H1100.44L1146.85 190.307Z" fill="url(#paint1_linear_295_2)"/>
<path d="M991.957 128.503C990.533 128.568 989.109 128.712 987.685 128.937C985.686 129.252 983.792 129.726 982.003 130.357C977.163 132.041 973.427 134.671 970.797 138.249C968.166 141.827 966.218 146.036 964.955 150.876V150.718C964.219 153.559 963.693 156.453 963.378 159.4C963.139 161.545 962.991 163.69 962.933 165.835H948.604C948.67 163.007 948.903 160.178 949.306 157.349L949.308 157.337L949.309 157.325C949.712 153.929 950.316 150.707 951.12 147.661C953.043 141.009 956.032 135.625 960.058 131.47C964.079 127.32 969.26 124.397 975.639 122.718L975.654 122.714L975.669 122.709C978.225 121.952 980.907 121.404 983.713 121.067C986.056 120.785 986.623 120.744 988.9 120.756L989.922 120.761V117.006L988.91 117.001C986.56 116.989 984.182 117.132 981.778 117.433C978.892 117.795 976.124 118.384 973.477 119.201C966.84 121.026 961.367 124.23 957.096 128.828C952.832 133.419 949.726 139.312 947.746 146.468L947.74 146.49C946.92 149.734 946.305 153.153 945.895 156.745C945.403 160.349 945.157 163.955 945.157 167.561L945.167 169.004C945.212 172.364 945.413 175.658 945.771 178.884C946.13 182.118 946.678 185.22 947.416 188.187L947.744 189.449C949.723 196.784 952.873 202.772 957.225 207.367L957.232 207.375C961.456 211.747 966.846 214.803 973.363 216.563L973.998 216.73C976.311 217.364 978.685 217.825 981.12 218.112L982.172 218.226C984.383 218.51 986.618 218.68 988.878 218.739L989.922 218.766V215.102L988.931 215.077C986.729 215.022 986.139 214.926 983.938 214.654L983.922 214.652L983.907 214.651L983.406 214.6C980.91 214.325 978.577 213.75 976.13 213.106L976.112 213.102L975.502 212.948C969.238 211.326 964.142 208.537 960.174 204.603C956.068 200.448 953.04 194.978 951.116 188.146C950.234 185.02 949.59 181.718 949.187 178.242C948.833 175.191 948.636 172.072 948.592 168.887H962.91C962.941 171.512 963.097 174.137 963.378 176.762C963.799 179.603 964.324 182.392 964.955 185.128C966.113 189.968 968.008 194.178 970.639 197.756C973.374 201.333 977.163 203.964 982.003 205.647C983.791 206.279 985.686 206.752 987.685 207.068C989.109 207.293 990.533 207.436 991.957 207.5V226.791C988.955 226.76 985.952 226.554 982.95 226.167C979.688 225.746 976.478 225.167 973.321 224.43C964.798 222.431 957.8 218.853 952.328 213.697C946.857 208.436 942.858 201.543 940.332 193.02C939.28 189.337 938.438 185.338 937.807 181.024C937.281 176.71 937.018 172.343 937.018 167.923C937.018 163.504 937.281 159.137 937.807 154.822C938.333 150.403 939.175 146.404 940.332 142.826V142.668C943.068 134.356 947.067 127.621 952.328 122.465C957.695 117.203 964.693 113.468 973.321 111.258C976.478 110.522 979.74 109.943 983.108 109.522C986.057 109.153 989.007 108.945 991.957 108.9V128.503Z" fill="url(#paint2_linear_295_2)"/>
<path fill-rule="evenodd" clip-rule="evenodd" d="M995.009 108.862C998.003 108.848 1001.03 109.013 1004.1 109.364C1007.78 109.785 1011.31 110.469 1014.68 111.416C1023.09 113.521 1029.99 117.203 1035.35 122.465C1040.72 127.726 1044.67 134.514 1047.19 142.826C1048.24 146.614 1049.03 150.613 1049.56 154.822C1050.19 159.031 1050.51 163.241 1050.51 167.449C1050.51 171.974 1050.24 176.394 1049.72 180.708C1049.19 185.022 1048.35 189.127 1047.19 193.02C1044.67 201.543 1040.67 208.436 1035.2 213.697C1029.72 218.853 1022.67 222.431 1014.04 224.43C1010.68 225.272 1007.2 225.851 1003.63 226.167C1000.79 226.501 997.915 226.7 995.009 226.769V207.517C996.566 207.463 998.124 207.314 999.681 207.068C1001.68 206.752 1003.57 206.279 1005.36 205.647C1010.2 203.964 1013.99 201.333 1016.73 197.756C1019.46 194.178 1021.36 189.968 1022.41 185.128C1023.04 182.392 1023.52 179.603 1023.83 176.762C1024.25 173.816 1024.46 170.869 1024.46 167.923C1024.46 165.082 1024.25 162.241 1023.83 159.4C1023.52 156.453 1023.04 153.612 1022.41 150.876C1021.36 146.036 1019.46 141.827 1016.73 138.249C1013.99 134.566 1010.2 131.936 1005.36 130.357C1003.57 129.726 1001.68 129.252 999.681 128.937C998.124 128.691 996.566 128.541 995.009 128.486V108.862ZM997.044 117.006V120.761L998.066 120.756C1000.34 120.744 1000.91 120.785 1003.25 121.067C1006.06 121.404 1008.74 121.952 1011.3 122.709L1011.31 122.714L1011.33 122.718C1017.71 124.397 1022.89 127.32 1026.91 131.47C1030.93 135.625 1033.92 141.009 1035.84 147.661C1036.65 150.707 1037.25 153.929 1037.66 157.325L1037.66 157.337L1037.66 157.349C1038.14 160.741 1038.38 164.134 1038.38 167.525C1038.38 171.185 1038.18 174.757 1037.78 178.242C1037.38 181.718 1036.73 185.019 1035.85 188.145C1033.93 194.977 1030.9 200.448 1026.79 204.603C1022.7 208.664 1017.4 211.506 1010.85 213.102L1010.84 213.106C1008.23 213.793 1005.75 214.401 1003.06 214.651L1003.04 214.652L1003.03 214.654C1000.83 214.926 1000.24 215.022 998.036 215.077L997.044 215.102V218.766L998.088 218.739C1000.35 218.68 1002.58 218.51 1004.79 218.226C1007.6 217.954 1010.32 217.455 1012.97 216.73C1019.77 214.999 1025.37 211.888 1029.73 207.375L1029.74 207.367C1034.09 202.772 1037.24 196.784 1039.22 189.449C1040.13 186.103 1040.78 182.58 1041.2 178.884C1041.6 175.197 1041.81 171.422 1041.81 167.561L1041.8 166.208C1041.75 163.504 1041.57 160.8 1041.24 158.097L1041.07 156.745C1040.66 153.153 1040.05 149.734 1039.23 146.49L1039.22 146.468L1039.03 145.801C1037.05 138.946 1034 133.275 1029.87 128.828C1025.6 124.229 1020.13 121.026 1013.49 119.201C1010.84 118.384 1008.07 117.795 1005.19 117.433C1002.78 117.132 1000.41 116.989 998.056 117.001L997.044 117.006Z" fill="url(#paint3_linear_295_2)"/>
<path d="M1194.81 110.925L1218.72 55.6339H1227.68L1215.3 110.925H1194.81ZM1246.49 215.744L1321.42 140.172C1327.83 133.768 1331.03 125.869 1331.03 116.689C1331.03 107.51 1327.83 99.8243 1321.21 93.4199C1314.59 87.0155 1306.69 83.8133 1297.3 83.8133C1287.91 83.8133 1279.79 87.229 1273.18 94.4873C1266.34 101.746 1263.36 109.858 1264 119.038H1248.84C1248.41 104.948 1252.89 92.993 1262.5 83.1729C1272.32 73.3528 1284.06 68.2293 1297.94 68.2293C1311.39 68.2293 1322.92 73.1393 1332.74 82.5324C1342.34 91.9256 1347.25 103.24 1347.25 116.689C1347.25 129.925 1342.56 141.24 1333.16 150.633L1282.57 200.801H1348.75V215.744H1246.49ZM1419.25 136.543C1414.55 136.543 1410.28 137.61 1406.22 139.318C1401.95 141.026 1398.32 143.374 1395.34 146.363C1388.5 152.767 1385.3 160.666 1385.3 169.632C1385.3 179.026 1388.5 186.711 1395.34 193.329C1401.95 199.947 1410.07 203.149 1419.25 203.149C1428.64 203.149 1436.54 199.947 1442.94 193.542C1449.35 187.138 1452.76 179.239 1452.76 170.273C1452.76 161.307 1449.35 153.408 1442.94 146.577C1436.32 139.959 1428.43 136.543 1419.25 136.543ZM1467.92 169.205C1467.92 176.464 1466.64 182.868 1464.08 188.632C1461.52 194.61 1457.89 199.733 1453.62 204.003C1444.22 213.396 1432.7 218.092 1419.03 218.092C1405.58 218.092 1394.06 213.396 1384.45 204.003C1374.84 194.61 1370.15 183.295 1370.15 169.632C1370.15 158.104 1373.77 147.857 1381.03 139.105L1437.82 70.5776H1457.46L1413.06 123.948L1417.32 121.172C1431.84 121.813 1443.58 126.296 1452.98 134.622C1462.8 143.801 1467.92 155.329 1467.92 169.205Z" fill="url(#paint4_radial_295_2)"/>
<defs>
<linearGradient id="paint0_linear_295_2" x1="0" y1="117" x2="192.287" y2="117" gradientUnits="userSpaceOnUse">
<stop stop-color="#FFA110"/>
<stop offset="1" stop-color="#FF2B00"/>
</linearGradient>
<linearGradient id="paint1_linear_295_2" x1="1070.3" y1="165.526" x2="1170.05" y2="165.526" gradientUnits="userSpaceOnUse">
<stop stop-color="#FFA110"/>
<stop offset="1" stop-color="#FF2B00"/>
</linearGradient>
<linearGradient id="paint2_linear_295_2" x1="937.018" y1="167.826" x2="1050.51" y2="167.826" gradientUnits="userSpaceOnUse">
<stop stop-color="#FFA110"/>
<stop offset="1" stop-color="#FF2B00"/>
</linearGradient>
<linearGradient id="paint3_linear_295_2" x1="937.018" y1="167.826" x2="1050.51" y2="167.826" gradientUnits="userSpaceOnUse">
<stop stop-color="#FFA110"/>
<stop offset="1" stop-color="#FF2B00"/>
</linearGradient>
<radialGradient id="paint4_radial_295_2" cx="0" cy="0" r="1" gradientUnits="userSpaceOnUse" gradientTransform="translate(1331.55 143.244) rotate(90) scale(72.5 142.5)">
<stop offset="0.567308" stop-color="#FEB74F"/>
<stop offset="1" stop-color="#EF8340"/>
</radialGradient>
</defs>
</svg>
